<?xml version="1.0" standalone="no"?>
<!DOCTYPE svg PUBLIC "-//W3C//DTD SVG 20010904//EN"
 "http://www.w3.org/TR/2001/REC-SVG-20010904/DTD/svg10.dtd">
<svg version="1.0" xmlns="http://www.w3.org/2000/svg"
 width="512.000000pt" height="512.000000pt" viewBox="0 0 512.000000 512.000000"
 preserveAspectRatio="xMidYMid meet">
<metadata>
Created by potrace 1.11, written by Peter Selinger 2001-2013
</metadata>
<g transform="translate(0.000000,512.000000) scale(0.100000,-0.100000)"
fill="#000000" stroke="none">
<path d="M250 4577 c-97 -27 -193 -116 -230 -213 -20 -55 -20 -59 -18 -1712
l3 -1657 21 -45 c32 -69 97 -135 166 -169 l61 -31 787 0 c518 0 797 -4 816
-10 17 -6 43 -32 63 -61 37 -54 93 -98 162 -126 37 -15 74 -18 232 -18 l189 0
29 33 29 32 29 -32 29 -33 161 -3 c94 -2 184 1 215 8 75 15 163 74 206 138 21
30 47 56 64 62 19 6 298 10 816 10 l787 0 61 31 c69 34 134 100 166 169 l21
45 3 1657 2 1657 -21 55 c-27 74 -104 157 -177 193 l-57 28 -830 0 -830 0 -78
-23 c-276 -80 -499 -314 -549 -576 -7 -36 -15 -66 -18 -66 -3 0 -11 30 -18 66
-49 260 -269 492 -544 576 -73 22 -75 22 -888 25 -627 2 -825 -1 -860 -10z
m1704 -222 c185 -48 325 -187 377 -375 10 -35 14 -358 16 -1432 2 -764 1
-1388 -3 -1388 -3 0 -31 22 -62 50 -63 56 -174 117 -277 151 -70 24 -70 24
-717 27 l-648 3 0 1489 0 1490 628 0 c527 0 637 -2 686 -15z m2526 -1475 l0
-1489 -647 -3 c-648 -3 -648 -3 -718 -27 -103 -34 -214 -95 -277 -151 -31 -28
-59 -50 -62 -50 -4 0 -5 624 -3 1388 2 1074 6 1397 16 1432 52 186 191 325
373 374 43 12 171 15 686 15 l632 1 0 -1490z"/>
<path d="M888 4131 l-33 -29 -3 -1204 c-2 -862 1 -1211 9 -1230 6 -15 20 -35
31 -45 19 -17 54 -18 499 -23 551 -6 514 1 528 -103 9 -63 22 -84 68 -103 42
-18 85 -8 118 26 l27 28 1 1224 1 1223 -26 57 c-33 72 -92 136 -160 174 l-53
29 -487 3 -487 3 -33 -30z m977 -196 c21 -8 39 -25 45 -40 6 -15 10 -145 10
-306 l0 -279 -105 0 -105 0 0 320 0 320 60 0 c33 0 76 -7 95 -15z m-375 -310
l0 -315 -210 0 -210 0 0 315 0 315 210 0 210 0 0 -315z m430 -745 l0 -210
-425 0 -425 0 0 210 0 210 425 0 425 0 0 -210z m0 -760 l0 -330 -26 10 c-15 6
-189 10 -425 10 l-399 0 0 320 0 320 425 0 425 0 0 -330z"/>
<path d="M1170 3625 l0 -105 110 0 110 0 0 105 0 105 -110 0 -110 0 0 -105z"/>
<path d="M1170 2880 l0 -110 110 0 110 0 0 110 0 110 -110 0 -110 0 0 -110z"/>
<path d="M1600 2880 l0 -110 105 0 105 0 0 110 0 110 -105 0 -105 0 0 -110z"/>
<path d="M1170 2135 l0 -105 110 0 110 0 0 105 0 105 -110 0 -110 0 0 -105z"/>
<path d="M1600 2135 l0 -105 105 0 105 0 0 105 0 105 -105 0 -105 0 0 -105z"/>
<path d="M3219 4146 c-90 -32 -164 -102 -207 -195 l-26 -56 0 -1210 c-1 -1344
-6 -1253 66 -1288 31 -15 44 -17 72 -7 49 16 68 43 77 107 14 105 -23 97 528
103 518 5 496 3 527 61 22 43 21 2396 -1 2439 -32 62 -14 60 -530 60 -358 -1
-479 -4 -506 -14z m831 -516 l0 -320 -425 0 -425 0 0 279 c0 161 4 291 10 306
20 52 42 54 458 55 l382 0 0 -320z m0 -860 l0 -320 -425 0 -425 0 0 320 0 320
425 0 425 0 0 -320z m0 -745 l0 -215 -399 0 c-236 0 -410 -4 -425 -10 l-26
-10 0 225 0 225 425 0 425 0 0 -215z"/>
<path d="M3310 3625 l0 -105 105 0 105 0 0 105 0 105 -105 0 -105 0 0 -105z"/>
<path d="M3730 3625 l0 -105 110 0 110 0 0 105 0 105 -110 0 -110 0 0 -105z"/>
<path d="M3310 2775 l0 -105 105 0 105 0 0 105 0 105 -105 0 -105 0 0 -105z"/>
<path d="M3730 2775 l0 -105 110 0 110 0 0 105 0 105 -110 0 -110 0 0 -105z"/>
<path d="M3310 2025 l0 -105 105 0 105 0 0 105 0 105 -105 0 -105 0 0 -105z"/>
<path d="M3730 2025 l0 -105 110 0 110 0 0 105 0 105 -110 0 -110 0 0 -105z"/>
</g>
</svg>
